<svg xmlns="http://www.w3.org/2000/svg" xmlns:xlink="http://www.w3.org/1999/xlink" width="500" zoomAndPan="magnify" viewBox="0 0 375 374.999991" height="500" preserveAspectRatio="xMidYMid meet" version="1.0"><defs><clipPath id="2104061c94"><path d="M 100.210938 127 L 274.960938 127 L 274.960938 211.445312 L 100.210938 211.445312 Z M 100.210938 127 " clip-rule="nonzero"/></clipPath><clipPath id="8f2e64fb42"><path d="M 106 96.695312 L 269 96.695312 L 269 198 L 106 198 Z M 106 96.695312 " clip-rule="nonzero"/></clipPath></defs><rect x="-37.5" width="450" fill="#ffffff" y="-37.499999" height="449.999989" fill-opacity="1"/><rect x="-37.5" width="450" fill="#ffffff" y="-37.499999" height="449.999989" fill-opacity="1"/><g clip-path="url(#2104061c94)"><path fill="#000000" d="M 274.949219 211.445312 C 274.949219 211.445312 264.3125 199.066406 262.316406 196.007812 C 260.320312 192.945312 254.339844 187.222656 251.277344 184.160156 C 248.222656 181.101562 249.949219 180.4375 247.558594 180.566406 C 245.164062 180.699219 245.03125 181.5 243.433594 181.101562 C 241.835938 180.703125 238.648438 175.773438 235.328125 171.777344 C 232.003906 167.78125 227.746094 166.589844 225.355469 162.859375 C 222.960938 159.132812 217.507812 147.550781 215.246094 143.824219 C 212.984375 140.097656 210.855469 141.960938 208.460938 139.566406 C 206.070312 137.167969 201.015625 129.980469 198.757812 129.316406 C 196.496094 128.652344 193.4375 132.644531 193.039062 132.910156 C 192.640625 133.175781 188.914062 139.964844 186.523438 140.367188 C 184.128906 140.765625 176.679688 153.277344 175.484375 154.476562 C 174.285156 155.675781 167.769531 155.40625 165.910156 155.542969 C 164.046875 155.675781 161.519531 162.863281 158.597656 164.464844 C 155.671875 166.058594 148.511719 175.695312 146.765625 175.78125 C 144.105469 175.898438 140.316406 183.085938 136.523438 185.882812 C 132.734375 188.683594 129.941406 189.875 127.546875 190.078125 C 125.15625 190.277344 122.558594 194.269531 120.765625 194.667969 C 118.96875 195.066406 115.179688 200.859375 113.980469 201.460938 C 112.785156 202.058594 105.8125 208.640625 104.617188 209.039062 C 103.417969 209.433594 100.226562 211.445312 100.226562 211.445312 C 100.226562 211.445312 100.699219 209.660156 103.789062 207.660156 C 106.882812 205.660156 110.769531 201.070312 113.265625 199.472656 C 115.757812 197.878906 117.554688 193.984375 120.945312 192.285156 C 124.332031 190.589844 124.535156 188.492188 127.824219 187.59375 C 131.113281 186.699219 136.699219 183.5 140.6875 177.308594 C 144.675781 171.117188 145.972656 174.515625 147.96875 172.21875 C 149.964844 169.925781 154.949219 164.632812 158.042969 162.339844 C 161.136719 160.042969 161.136719 154.953125 165.121094 153.652344 C 169.109375 152.355469 172.40625 153.855469 174.996094 151.257812 C 177.589844 148.660156 180.078125 141.976562 184.46875 138.980469 C 188.859375 135.984375 193.144531 127.199219 197.832031 127.199219 C 203.316406 127.199219 207.304688 137.382812 210.894531 138.878906 C 214.484375 140.375 217.476562 142.574219 221.769531 151.558594 C 226.058594 160.546875 227.054688 163.042969 232.238281 165.734375 C 237.421875 168.429688 241.914062 178.675781 244.703125 178.84375 C 247.496094 179.015625 248.59375 177.714844 251.585938 181.808594 C 254.578125 185.902344 260.558594 191.09375 263.75 195.882812 C 266.9375 200.675781 273.480469 205.84375 274.949219 211.445312 Z M 274.949219 211.445312 " fill-opacity="1" fill-rule="nonzero"/></g><path fill="#000000" d="M 121.917969 206.976562 C 120.394531 207.703125 129.132812 199.734375 131.074219 197.296875 C 133.011719 194.863281 137.761719 192.292969 139.128906 190.09375 C 140.496094 187.894531 144.652344 188.765625 147.171875 188.886719 C 149.6875 189.011719 153.9375 188.019531 156.726562 188.160156 C 159.523438 188.292969 159.550781 184.832031 162.414062 183.507812 C 165.28125 182.179688 169.269531 177.980469 168.164062 177.65625 C 167.058594 177.335938 163.667969 180.769531 161.960938 181.351562 C 160.253906 181.933594 158.539062 182.519531 156.621094 184.554688 C 154.699219 186.59375 149.300781 185.976562 147.3125 185.878906 C 144.378906 185.734375 149.332031 184.730469 154.355469 182.179688 C 159.382812 179.628906 159.378906 176.828125 163.085938 175.414062 C 166.796875 173.996094 171.066406 166.871094 173.527344 165.257812 C 175.984375 163.644531 179.589844 161.554688 181.148438 158.300781 C 182.707031 155.042969 183.367188 150.148438 186.488281 149.367188 C 189.605469 148.589844 195.351562 145.667969 194.125 144.945312 C 192.902344 144.21875 188.765625 145.75 187.523438 145.421875 C 186.277344 145.09375 194.519531 141.5 194.617188 138.703125 C 194.710938 135.910156 196.136719 141.179688 196.785156 142.140625 C 197.441406 143.109375 200.007812 145.097656 195.117188 147.65625 C 190.230469 150.214844 198.0625 150.460938 199.496094 152.664062 C 200.929688 154.871094 207.890625 158.539062 206.488281 158.605469 C 205.085938 158.667969 199.769531 155.609375 196.101562 156.230469 C 192.425781 156.851562 196.757812 154.261719 195.523438 153.667969 C 194.292969 153.074219 191.882812 150.824219 188.9375 153.746094 C 185.992188 156.667969 185.15625 162.355469 182.222656 165.015625 C 179.292969 167.667969 177.367188 172.695312 179.210938 172.222656 C 181.054688 171.753906 189.429688 163.632812 192.140625 162.699219 C 194.847656 161.765625 199.566406 162.667969 203.566406 163.925781 C 207.566406 165.1875 199.332031 164.519531 200.273438 165.363281 C 201.210938 166.207031 195.851562 167.011719 196.230469 167.832031 C 196.613281 168.648438 203.152344 169.558594 205.339844 173.5 C 207.527344 177.445312 210.804688 179.203125 213.917969 178.554688 C 217.03125 177.910156 218.203125 176.824219 215.265625 173.988281 C 212.320312 171.148438 209.695312 167.554688 211.890625 168.464844 C 214.089844 169.371094 218.414062 175.425781 220.652344 175.476562 C 222.890625 175.53125 223.003906 176.066406 226.039062 179.945312 C 229.070312 183.824219 236.503906 186.457031 237.972656 187.992188 C 239.441406 189.53125 241.992188 188.855469 239.996094 189.558594 C 238 190.261719 237.367188 188.898438 233.980469 189.394531 C 230.59375 189.898438 229.371094 186.238281 226.878906 185.71875 C 224.382812 185.199219 219.640625 181.902344 216.929688 182.96875 C 214.214844 184.035156 205.566406 183.34375 198.667969 186.871094 C 191.777344 190.402344 199.390625 183.574219 201.644531 183.289062 C 203.898438 183 200.65625 180.570312 198.699219 180.480469 C 196.742188 180.382812 196.675781 178.914062 193.8125 177.308594 C 190.945312 175.707031 192.34375 172.972656 185.53125 177.703125 C 178.714844 182.433594 175.566406 180.949219 172.800781 183.078125 C 170.035156 185.207031 165.449219 190.183594 162.179688 191.21875 C 158.90625 192.253906 154.648438 196.3125 151.683594 196.839844 C 148.714844 197.359375 153.859375 195.347656 154.359375 193.636719 C 154.863281 191.925781 150.179688 193.164062 148.234375 192.804688 C 146.292969 192.449219 141.496094 193.144531 139.75 194.523438 C 138.007812 195.902344 126.222656 204.921875 121.917969 206.976562 Z M 121.917969 206.976562 " fill-opacity="1" fill-rule="nonzero"/><path fill="#000000" d="M 262.457031 205.566406 C 262.457031 205.566406 252.484375 196.578125 249.289062 196.382812 C 246.097656 196.183594 243.703125 198.78125 240.117188 198.179688 C 236.527344 197.582031 232.539062 190.195312 228.550781 189.996094 C 224.5625 189.792969 216.386719 190.59375 213.992188 189.996094 C 211.597656 189.394531 215.988281 192.789062 218.980469 192.390625 C 221.972656 191.992188 226.359375 191.589844 227.957031 192.988281 C 229.550781 194.390625 233.34375 196.785156 234.742188 198.582031 C 236.140625 200.378906 227.164062 195.515625 221.179688 197.746094 C 215.195312 199.976562 207.414062 200.980469 204.023438 202.972656 C 200.636719 204.972656 208.8125 197.582031 208.8125 194.390625 C 208.8125 194.390625 205.617188 196.914062 201.03125 197.746094 C 196.445312 198.582031 195.503906 205.96875 189.988281 205.570312 C 184.476562 205.171875 177.894531 207.164062 175.105469 208.363281 C 172.3125 209.5625 183.25 207.433594 187.457031 208.898438 C 191.660156 210.363281 195.914062 206.101562 198.441406 206.234375 C 200.972656 206.367188 200.304688 210.175781 202.964844 209.203125 C 205.625 208.234375 209.078125 203.707031 212.539062 204.105469 C 215.996094 204.503906 221.449219 200.644531 224.238281 201.976562 C 227.03125 203.304688 234.347656 204.105469 237.269531 206.769531 C 240.191406 209.429688 240.195312 206.101562 235.941406 203.707031 C 231.6875 201.3125 238.734375 203.171875 241.527344 203.042969 C 244.320312 202.910156 245.25 199.847656 248.046875 201.042969 C 250.835938 202.242188 252.566406 204.503906 256.15625 205.304688 C 259.746094 206.101562 263.871094 210.226562 266.929688 210.09375 C 269.988281 209.964844 264.136719 200.84375 262.140625 200.011719 C 260.144531 199.179688 268.375 209.160156 262.457031 205.566406 Z M 262.457031 205.566406 " fill-opacity="1" fill-rule="nonzero"/><path fill="#000000" d="M 189.714844 193.523438 C 186.398438 195.644531 182.535156 199.910156 176.953125 198.113281 C 171.363281 196.316406 167.976562 204.703125 162.992188 204.90625 C 158.007812 205.105469 152.21875 209.097656 149.429688 208.5 C 146.636719 207.902344 155.613281 205.503906 158.003906 202.710938 C 160.398438 199.917969 160.335938 202.347656 164.1875 202.3125 C 168.035156 202.277344 171.167969 195.324219 174.160156 195.125 C 177.152344 194.921875 180.742188 196.921875 183.136719 194.726562 C 185.527344 192.523438 196.335938 189.285156 189.714844 193.523438 Z M 189.714844 193.523438 " fill-opacity="1" fill-rule="nonzero"/><path fill="#000000" d="M 209.601562 156.644531 C 209.601562 156.644531 214.789062 160.636719 216.515625 163.699219 C 218.246094 166.757812 221.4375 167.082031 223.699219 169.316406 C 225.960938 171.550781 227.554688 171.625 229.285156 172.453125 C 231.015625 173.277344 226.09375 168.222656 224.632812 165.828125 C 223.171875 163.429688 217.851562 156.90625 215.988281 151.183594 C 214.128906 145.460938 215.859375 156.507812 217.71875 159.835938 C 219.578125 163.164062 214.925781 157.441406 212.535156 155.710938 C 210.140625 153.976562 207.480469 153.976562 205.085938 151.984375 C 202.6875 149.988281 201.621094 151.589844 209.601562 156.644531 Z M 209.601562 156.644531 " fill-opacity="1" fill-rule="nonzero"/><g clip-path="url(#8f2e64fb42)"><path fill="#000000" d="M 108.804688 177.558594 C 108.804688 134.074219 144.148438 98.691406 187.59375 98.691406 C 231.035156 98.691406 266.378906 134.070312 266.378906 177.558594 C 266.378906 182.191406 265.972656 186.722656 265.207031 191.140625 C 265.785156 191.863281 266.332031 192.585938 266.832031 193.3125 C 267.84375 188.214844 268.375 182.949219 268.375 177.558594 C 268.375 132.972656 232.136719 96.695312 187.597656 96.695312 C 143.054688 96.695312 106.808594 132.972656 106.808594 177.558594 C 106.808594 184.433594 107.675781 191.109375 109.292969 197.484375 C 109.890625 196.980469 110.464844 196.535156 111.027344 196.171875 C 109.578125 190.199219 108.804688 183.96875 108.804688 177.558594 Z M 108.804688 177.558594 " fill-opacity="1" fill-rule="nonzero"/></g></svg>